# xmcd CD database file
#
# Track frame offsets:
#	150
#	11610
#	23612
#	35812
#	46580
#	57620
#	69752
#	79765
#	90550
#	101645
#	112825
#	124340
#	136587
#	148262
#	160895
#	174427
#	187822
#	200062
#	212582
#	224817
#
# Disc length: 3151 seconds
#
# Revision: 5
# Processed by: cddbd v1.5.2PL0 Copyright (c) Steve Scherf et al.
# Submitted via: CDex 1.51
#
DISCID=170c4d14
DTITLE=Ray Price - The Essential Ray Price (1951-1962)
DYEAR=1991
DGENRE=Country
TTITLE0=If You're Ever Lonely Darling
TTITLE1=The Road of No Return
TTITLE2=Talk to Your Heart
TTITLE3=Move On In and Stay
TTITLE4=I'll Be There
TTITLE5=Release Me
TTITLE6=I Can't Go Home Like This
TTITLE7=You Done Me Wrong
TTITLE8=Falling Falling Falling
TTITLE9=Wasted Words
TTITLE10=Crazy Arms
TTITLE11=I've Got a New Heartache
TTITLE12=My Shoes Keep Walking Back to You
TTITLE13=Invitation to the Blues
TTITLE14=City Lights
TTITLE15=Heartaches By Number
TTITLE16=The Same Old Me
TTITLE17=One More Time
TTITLE18=Heart Over Mind
TTITLE19=Pride
EXTD=YEAR: 1991
EXTT0=
EXTT1=
EXTT2=
EXTT3=
EXTT4=
EXTT5=
EXTT6=
EXTT7=
EXTT8=
EXTT9=
EXTT10=
EXTT11=
EXTT12=
EXTT13=
EXTT14=
EXTT15=
EXTT16=
EXTT17=
EXTT18=
EXTT19=
PLAYORDER=
